# xmcd
#
# Track frame offsets:
#	150
#	15150
#	32605
#	45478
#	60100
#	72410
#	86250
#	96778
#	107360
#	122440
#
# Disc length: 1784 seconds
#
# Revision: 2
# Processed by: cddbd v1.5.2PL0 Copyright (c) Steve Scherf et al.
# Submitted via: EZCDAudioConverter 6.0.4.1
#
DISCID=6206f60a
DTITLE=Kenny Rogers (with the First Edition) - Kenny Rogers Golden Hits
DYEAR=1992
DGENRE=Country
TTITLE0=Conditions
TTITLE1=Something's Burning
TTITLE2=Ruby, Don't Take Your Love to Town
TTITLE3=Heed the Call
TTITLE4=Ruben James
TTITLE5=Loser
TTITLE6=We all Got To Help Each Other
TTITLE7=She Even Woke Me Up to Say Goodbye
TTITLE8=For the Good Times
TTITLE9=Poem For My Little Lady
EXTD=
EXTT0=
EXTT1=
EXTT2=
EXTT3=
EXTT4=
EXTT5=
EXTT6=
EXTT7=
EXTT8=
EXTT9=
PLAYORDER=
